<svg width="360" height="335" viewBox="0 0 360 335" fill="none" xmlns="http://www.w3.org/2000/svg">
<g filter="url(#filter0_d)">
<path d="M346.894 187.692L215.624 111.35C214.681 110.806 213.611 110.519 212.521 110.519C211.432 110.519 210.362 110.806 209.419 111.35L13.1156 223.697C12.1688 224.241 11.3821 225.025 10.8351 225.97C10.2881 226.915 10 227.987 10 229.079C10 230.171 10.2881 231.243 10.8351 232.188C11.3821 233.133 12.1688 233.917 13.1156 234.46L138.646 306.937C141.727 308.716 145.221 309.652 148.779 309.652C152.336 309.652 155.83 308.716 158.911 306.937L346.894 198.443C347.838 197.899 348.623 197.116 349.168 196.172C349.713 195.228 350 194.157 350 193.068C350 191.978 349.713 190.907 349.168 189.963C348.623 189.02 347.838 188.236 346.894 187.692Z" fill="#FFD600"/>
<path style="mix-blend-mode:multiply" d="M309.115 190.601C303.342 194.42 237.866 233.017 232.16 236.927C241.866 242.28 244.662 243.746 245.708 244.53L323.481 199.569L309.115 190.601Z" fill="url(#paint0_linear)"/>
<path style="mix-blend-mode:multiply" d="M129.737 267.557C123.963 271.376 106.483 279.195 100.778 283.105C110.484 288.458 132.248 300.857 133.328 301.63L160.9 286.321L129.737 267.557Z" fill="url(#paint1_linear)"/>
<path style="mix-blend-mode:multiply" d="M164.402 166.815C147.012 178.328 95.4932 214.197 78.2974 225.995C107.552 242.145 158.764 270.945 161.992 273.275L239.561 220.096L164.402 166.815Z" fill="url(#paint2_linear)"/>
<path d="M314.491 163.224L323.493 158.018V199.57L315.082 204.423L314.491 163.224Z" fill="#FFA75F"/>
<path d="M314.492 163.224L305.479 158.018L305.684 199.013L315.083 204.423L314.492 163.224Z" fill="#EF8A3F"/>
<path d="M305.479 158.018L314.492 152.733L323.493 158.018L314.492 163.223L305.479 158.018Z" fill="#FFB37B"/>
<path d="M298.285 179.817L307.298 174.612V208.89L298.774 213.709L298.285 179.817Z" fill="#112E7C"/>
<path d="M298.284 179.817L289.271 174.612L289.441 208.231L298.772 213.709L298.284 179.817Z" fill="#112E7C"/>
<path d="M289.271 174.611L298.284 169.337L307.297 174.611L298.284 179.816L289.271 174.611Z" fill="#112E7C"/>
<path d="M298.285 179.817L307.298 174.612V208.89L298.774 213.709L298.285 179.817Z" fill="#112E7C"/>
<path opacity="0.19" d="M298.284 179.817L289.271 174.612L289.441 208.231L298.772 213.709L298.284 179.817Z" fill="black"/>
<path opacity="0.53" d="M289.271 174.611L298.284 169.337L307.297 174.611L298.284 179.816L289.271 174.611Z" fill="white"/>
<path d="M280.714 195.807L289.726 190.601L290.158 218.787L280.714 224.322V195.807Z" fill="#112E7C"/>
<path d="M280.714 195.807L271.701 190.601V219.015L280.714 224.322V195.807Z" fill="#112E7C"/>
<path opacity="0.19" d="M280.714 195.807L271.701 190.601V219.015L280.714 224.322V195.807Z" fill="black"/>
<path d="M271.701 190.603L280.714 185.329L289.726 190.603L280.714 195.808L271.701 190.603Z" fill="#112E7C"/>
<path opacity="0.53" d="M271.701 190.603L280.714 185.329L289.726 190.603L280.714 195.808L271.701 190.603Z" fill="white"/>
<path d="M262.234 214.333L271.235 209.127L271.553 229.426L262.234 234.699V214.333Z" fill="#EFE600"/>
<path d="M262.232 214.333L253.22 209.127V229.449L262.232 234.699V214.333Z" fill="#D2CA00"/>
<path d="M253.22 209.129L262.232 203.855L271.234 209.129L262.232 214.334L253.22 209.129Z" fill="#FFF500"/>
<path d="M277.064 44.2267C277.064 44.2267 296.067 49.0229 290.475 79.5617L248.821 55.9785C248.821 55.9785 265.676 41.3058 277.064 44.2267Z" fill="#112E7C"/>
<path opacity="0.39" d="M277.064 44.2267C277.064 44.2267 296.067 49.0229 290.475 79.5617L248.821 55.9785C248.821 55.9785 265.676 41.3058 277.064 44.2267Z" fill="#06489E"/>
<path d="M220.057 231.87C187.348 212.787 158.684 196.41 126.622 177.93C129.043 176.793 130.509 175.475 132.691 174.429C192.098 145.936 169.743 103.964 169.527 60.9118C169.458 47.1597 169.743 32.7711 173.959 19.4281C175.505 14.5638 177.573 9.40387 181.358 5.51691C183.483 3.33475 186.541 0.788906 189.825 0.129713C193.485 -0.597672 196.963 1.90272 199.884 3.43704L210.112 8.80151L237.071 22.9514L258.938 34.4305L262.802 36.4535L278.93 44.9207C275.861 43.3068 269.201 48.7622 267.564 50.4557C263.78 54.3426 261.711 59.548 260.166 64.3669C255.938 77.7099 255.619 92.0871 255.733 105.851C255.892 148.357 276.452 203.047 220.057 231.87Z" fill="#112E7C"/>
<path d="M197.2 78.8232V92.1548L193.7 89.8818V76.8911C194.893 77.4821 196.064 78.1186 197.2 78.8232Z" fill="white"/>
<path d="M190.2 70.2984V88.2558L186.699 85.9827V68.5823L190.2 70.2984Z" fill="white"/>
<path d="M183.154 60.9796V84.6083L179.653 82.3352V59.5476C180.881 60.059 182.017 60.5478 183.154 60.9796Z" fill="white"/>
<path d="M224.409 94.3266C221.364 91.2011 218.09 89.5532 215.01 89.5532C214.43 89.5533 213.851 89.6142 213.283 89.735C210.916 90.3127 208.845 91.7407 207.464 93.747C206.112 91.8603 204.647 90.0574 203.077 88.3484C205.356 85.6773 208.445 83.8219 211.873 83.0635C217.795 81.8133 223.978 84.1205 229.285 89.5645C230.864 91.1968 232.277 92.9824 233.502 94.8949C231.558 96.0314 229.66 97.3271 227.819 98.5773C226.826 97.0509 225.684 95.627 224.409 94.3266Z" fill="#FFA75F"/>
<path d="M224.386 142.379C227.648 141.401 230.342 138.401 232.035 133.843C234.081 127.712 234.38 121.132 232.899 114.84C232.069 110.792 230.6 106.902 228.546 103.316C230.444 102.066 232.342 100.804 234.229 99.6335C236.728 103.915 238.513 108.576 239.514 113.431C241.261 120.985 240.867 128.876 238.377 136.219C235.945 142.754 231.785 147.164 226.557 148.823C225.921 146.652 225.205 144.493 224.386 142.379Z" fill="#FFF500"/>
<path d="M198.588 99.5533C199.439 97.2006 200.634 94.9868 202.134 92.9841C203.733 94.7423 205.221 96.5985 206.589 98.5418C205.946 99.6254 205.405 100.767 204.975 101.951C202.93 108.083 202.631 114.663 204.111 120.954C205.303 127.315 208.243 133.219 212.601 138.002C215.954 141.412 219.591 143.094 222.921 142.719C223.773 144.856 224.501 147.049 225.194 149.254C224.152 149.474 223.089 149.585 222.023 149.584C217.113 149.584 212.147 147.231 207.782 142.765C202.548 137.057 199.006 130.005 197.554 122.398C195.763 114.835 196.121 106.923 198.588 99.5533Z" fill="#F2F2F2"/>
<path d="M216.814 124.344C219.153 124.084 220.668 120.439 220.196 116.203C219.725 111.967 217.446 108.744 215.107 109.005C212.768 109.265 211.253 112.91 211.725 117.146C212.196 121.382 214.475 124.605 216.814 124.344Z" fill="#F2F2F2"/>
<path d="M245.3 76.2776L178.119 36.9988C177.923 36.8843 177.69 36.8523 177.47 36.9098C177.251 36.9674 177.063 37.1098 176.949 37.3057C176.834 37.5016 176.802 37.735 176.86 37.9546C176.917 38.1741 177.059 38.3618 177.255 38.4763L244.436 77.7551C244.533 77.8118 244.64 77.8489 244.752 77.8641C244.863 77.8794 244.976 77.8726 245.085 77.8441C245.194 77.8156 245.296 77.766 245.385 77.6981C245.475 77.6301 245.55 77.5452 245.607 77.4482C245.664 77.3512 245.701 77.244 245.716 77.1327C245.731 77.0213 245.724 76.9081 245.696 76.7994C245.667 76.6907 245.618 76.5886 245.55 76.4991C245.482 76.4096 245.397 76.3343 245.3 76.2776Z" fill="#F2F2F2"/>
<path d="M248.14 69.7769L180.959 30.4981C180.763 30.3835 180.53 30.3515 180.31 30.4091C180.091 30.4666 179.903 30.609 179.788 30.805C179.674 31.0009 179.642 31.2343 179.699 31.4538C179.757 31.6734 179.899 31.861 180.095 31.9756L247.287 71.2089C247.483 71.3235 247.717 71.3555 247.936 71.2979C248.156 71.2404 248.344 71.098 248.458 70.9021C248.573 70.7061 248.605 70.4727 248.547 70.2532C248.49 70.0336 248.347 69.846 248.151 69.7314L248.14 69.7769Z" fill="#F2F2F2"/>
<path d="M245.3 83.4151L178.119 44.1363C177.923 44.0217 177.69 43.9897 177.47 44.0473C177.251 44.1048 177.063 44.2472 176.949 44.4431C176.834 44.6391 176.802 44.8725 176.86 45.092C176.917 45.3115 177.059 45.4992 177.255 45.6138L244.436 84.8471C244.632 84.9616 244.866 84.9937 245.085 84.9361C245.305 84.8786 245.492 84.7362 245.607 84.5402C245.721 84.3443 245.753 84.1109 245.696 83.8914C245.638 83.6718 245.496 83.4841 245.3 83.3696V83.4151Z" fill="#F2F2F2"/>
<path d="M245.3 173.792L178.119 134.513C177.923 134.399 177.69 134.367 177.47 134.424C177.251 134.482 177.063 134.624 176.949 134.82C176.834 135.016 176.802 135.249 176.86 135.469C176.917 135.689 177.059 135.876 177.255 135.991L244.436 175.27C244.632 175.384 244.866 175.416 245.085 175.359C245.305 175.301 245.492 175.159 245.607 174.963C245.721 174.767 245.753 174.533 245.696 174.314C245.638 174.094 245.496 173.907 245.3 173.792Z" fill="#F2F2F2"/>
<path d="M244.821 181.089L177.64 141.811C177.444 141.696 177.211 141.664 176.992 141.722C176.772 141.779 176.584 141.922 176.47 142.117C176.355 142.313 176.323 142.547 176.381 142.766C176.438 142.986 176.581 143.174 176.777 143.288L243.957 182.59C244.153 182.704 244.387 182.736 244.606 182.679C244.826 182.621 245.014 182.479 245.128 182.283C245.243 182.087 245.275 181.853 245.217 181.634C245.16 181.414 245.017 181.227 244.821 181.112V181.089Z" fill="#F2F2F2"/>
<path d="M243.526 188.09L176.334 148.811C176.138 148.697 175.904 148.665 175.685 148.722C175.465 148.78 175.277 148.922 175.163 149.118C175.048 149.314 175.016 149.548 175.074 149.767C175.131 149.987 175.274 150.174 175.47 150.289L242.651 189.568C242.846 189.682 243.08 189.714 243.299 189.657C243.519 189.599 243.707 189.457 243.821 189.261C243.936 189.065 243.968 188.831 243.91 188.612C243.853 188.392 243.71 188.205 243.514 188.09H243.526Z" fill="#F2F2F2"/>
<path d="M189.234 163.519L199.668 201.139C199.668 201.139 198.781 211.368 185.495 207.094L176.403 167.406C176.403 167.406 178.482 158.598 189.234 163.519Z" fill="#91BE30"/>
<path d="M173.537 145.823L180.118 168.122C180.118 168.122 185.8 171.02 187.528 165.508L182.141 143.766L173.537 145.823Z" fill="#587E07"/>
<path d="M163.287 140.64C156.967 135.684 151.807 128.058 148.762 119.171C145.716 110.283 145.113 101.1 147.068 93.3143C149.171 84.938 153.956 79.0848 160.525 76.8345C173.709 72.2883 189.2 83.8356 195.757 103.066C202.315 122.296 197.178 140.89 183.983 145.413C180.594 146.556 176.948 146.698 173.481 145.822C169.752 144.843 166.275 143.076 163.287 140.64ZM162.991 83.9947C158.922 85.3926 155.876 89.3478 154.422 95.1555C152.819 101.543 153.353 109.203 155.933 116.75C158.513 124.296 162.752 130.65 167.958 134.707C172.663 138.401 177.493 139.662 181.596 138.264C190.461 135.23 193.689 120.239 188.654 105.543C184.744 94.1781 176.789 85.6313 169.333 83.8242C167.247 83.2637 165.044 83.323 162.991 83.9947Z" fill="#587E07"/>
<path d="M171.162 87.2677C169.196 85.8243 164.741 88.1997 163.332 89.5408C151.637 100.486 157.263 120.966 167.389 131.4C171.185 135.309 180.13 140.662 183.426 138.423C183.426 138.423 168.798 148.311 158.354 137.389C147.909 126.467 145.363 105.305 145.363 105.305L146.011 94.1552L149.841 86.6995L153.728 82.5738L163.32 81.5168L171.162 87.2677Z" fill="#587E07"/>
<path d="M159.741 141.673C153.422 136.718 148.262 129.092 145.216 120.204C142.17 111.316 141.568 102.133 143.522 94.3477C145.648 85.9828 150.41 80.1183 157.013 77.8679C170.197 73.3218 185.688 84.869 192.246 104.099C198.804 123.329 193.667 141.923 180.471 146.447C177.083 147.589 173.437 147.732 169.97 146.856C166.228 145.881 162.74 144.114 159.741 141.673ZM159.445 85.0281C155.377 86.4261 152.331 90.3812 150.876 96.1889C149.273 102.576 149.808 110.237 152.387 117.783C154.967 125.33 159.207 131.683 164.412 135.74C169.117 139.434 173.948 140.696 178.051 139.298C186.916 136.263 190.143 121.272 185.108 106.577C181.199 95.2115 173.243 86.6647 165.787 84.8576C163.702 84.2972 161.498 84.3564 159.445 85.0281Z" fill="#91BE30"/>
<path d="M153.604 144.244C153.827 143.71 154.089 143.193 154.388 142.698C154.382 142.724 154.382 142.752 154.388 142.778C154.396 142.818 154.416 142.855 154.445 142.884C154.475 142.913 154.512 142.933 154.553 142.94C154.593 142.947 154.635 142.942 154.673 142.925C154.71 142.909 154.742 142.881 154.764 142.846L155.332 141.982C155.312 142.095 155.312 142.21 155.332 142.323C155.376 142.536 155.499 142.725 155.676 142.851C155.853 142.977 156.071 143.032 156.286 143.005C156.413 142.996 156.535 142.959 156.645 142.897C156.756 142.835 156.851 142.749 156.924 142.646C156.996 142.543 157.045 142.424 157.067 142.3C157.088 142.175 157.082 142.047 157.048 141.925L157.309 141.618C157.296 141.705 157.296 141.793 157.309 141.88C157.348 142.002 157.418 142.111 157.511 142.199C157.605 142.286 157.719 142.348 157.843 142.379C157.967 142.409 158.097 142.408 158.221 142.374C158.344 142.341 158.457 142.276 158.548 142.187C158.65 142.107 158.741 142.005 158.832 141.914C158.911 141.948 158.996 141.966 159.082 141.966C159.168 141.966 159.254 141.948 159.332 141.914C160.073 141.662 160.798 141.366 161.503 141.027C161.453 141.007 161.409 140.975 161.374 140.934C161.34 140.892 161.316 140.843 161.305 140.791C161.293 140.738 161.295 140.683 161.31 140.631C161.325 140.579 161.352 140.532 161.39 140.493C162.222 139.823 163.104 139.215 164.026 138.675H164.14V138.584C164.36 137.883 164.312 137.125 164.004 136.459C164.23 136.19 164.39 135.873 164.473 135.531C164.556 135.19 164.559 134.835 164.481 134.492C164.41 134.486 164.343 134.458 164.288 134.413C164.157 134.299 164.046 134.165 163.958 134.015C163.799 133.81 163.676 133.579 163.594 133.333C163.575 133.271 163.576 133.205 163.596 133.144C163.617 133.083 163.656 133.03 163.708 132.992C163.367 132.537 162.969 132.106 162.572 131.708C163.42 130.233 163.815 128.541 163.708 126.843C163.699 126.684 163.639 126.532 163.538 126.409C163.437 126.286 163.298 126.198 163.144 126.159C162.989 126.12 162.826 126.131 162.678 126.191C162.53 126.25 162.405 126.356 162.321 126.491C161.985 127.029 161.681 127.587 161.412 128.162C161.321 128.221 161.246 128.303 161.196 128.4C159.738 131.392 158.118 134.302 156.343 137.118C156.048 137.595 152.365 142.664 152.786 142.8C152.934 142.96 149.91 149.915 153.604 144.244ZM155.786 142.096C155.805 142.117 155.827 142.135 155.853 142.146C155.878 142.158 155.906 142.164 155.934 142.164C155.962 142.164 155.99 142.158 156.016 142.146C156.041 142.135 156.064 142.117 156.082 142.096C156.172 142.162 156.276 142.208 156.386 142.229C156.496 142.251 156.61 142.248 156.718 142.221C156.694 142.336 156.629 142.439 156.535 142.511C156.44 142.582 156.323 142.617 156.206 142.608C156.088 142.6 155.977 142.549 155.893 142.465C155.81 142.382 155.76 142.271 155.752 142.153L155.786 142.096Z" fill="#FCBF81"/>
<path d="M154.024 142.63C154.825 142.005 155.5 141.234 156.013 140.357C156.113 140.175 156.248 140.014 156.411 139.884C156.573 139.755 156.76 139.659 156.96 139.603C157.161 139.547 157.37 139.531 157.576 139.557C157.783 139.583 157.982 139.65 158.161 139.755C158.219 139.348 158.25 138.938 158.252 138.527C158.252 136.436 161.548 136.402 161.514 138.527C161.587 140.174 161.146 141.802 160.253 143.187C159.267 144.436 158.066 145.498 156.707 146.324C156.467 146.459 156.198 146.532 155.923 146.538C155.648 146.543 155.375 146.481 155.13 146.356C154.885 146.231 154.675 146.048 154.517 145.822C154.36 145.597 154.261 145.336 154.229 145.062L154.081 144.949C153.925 144.8 153.799 144.623 153.712 144.426C153.624 144.229 153.577 144.017 153.571 143.801C153.566 143.586 153.603 143.371 153.681 143.171C153.759 142.97 153.876 142.786 154.024 142.63Z" fill="#FCBF81"/>
<path d="M135.976 150.438C135.976 150.438 145.478 150.892 147.955 148.619C150.433 146.346 153.99 139.175 153.99 139.175C153.99 139.175 160.537 143.38 160.809 145.812C161.082 148.244 153.99 159.939 150.785 160.735" fill="#ADE117"/>
<path d="M121.565 267.592C121.565 267.592 129.6 264.023 131.532 263.875C133.465 263.727 136.692 264.398 133.874 267.944C133.874 267.944 125.429 273.468 124.315 273.627C123.202 273.786 120.497 272.956 120.429 273.24C120.36 273.524 120.11 275.661 120.11 275.661C120.11 275.661 113.052 278.355 112.734 273.627C112.734 273.013 113.757 264.25 113.757 264.25" fill="#141985"/>
<path d="M112.347 246.896C113.745 237.803 116.302 229.018 117.359 219.835C118.029 214.05 118.495 208.242 119.223 202.468C119.95 196.695 122.087 191.103 123.473 185.42C123.51 185.288 123.502 185.147 123.451 185.02C123.399 184.892 123.307 184.785 123.189 184.716C123.257 184.511 123.314 184.318 123.382 184.113C124.099 183.431 124.826 182.783 125.531 182.17L135.407 188.818C135.407 188.818 135.35 194.865 135.043 203.593C133.907 208.696 133.02 213.254 131.725 218.096C131.864 218.246 131.964 218.428 132.017 218.626C132.071 218.824 132.076 219.032 132.032 219.232C128.818 234.483 126.477 249.904 125.019 265.421C124.995 265.675 124.899 265.917 124.742 266.119C124.584 266.32 124.373 266.472 124.133 266.558L123.86 268.944C115.268 272.263 113.381 266.489 113.381 266.489C113.381 266.489 112.995 261.568 112.506 254.738C112.335 252.146 112.29 249.51 112.347 246.896Z" fill="#34323D"/>
<path d="M185.04 154.267C184.528 154.574 183.983 154.915 183.346 155.347C184.205 154.281 184.965 153.14 185.619 151.937C186.256 150.869 184.676 150.005 183.903 150.801C181.714 153.181 179.355 155.399 176.845 157.438C176.73 157.529 176.634 157.641 176.561 157.768H175.015C174.561 157.768 174.117 157.768 173.697 157.768H173.333C173.179 157.736 173.019 157.743 172.868 157.789C172.717 157.834 172.58 157.917 172.469 158.029C172.267 158.099 172.073 158.191 171.89 158.302C171.832 158.342 171.779 158.387 171.731 158.438C171.231 158.495 170.719 158.529 170.219 158.598C170.05 158.629 169.891 158.698 169.753 158.8C169.614 158.902 169.501 159.034 169.421 159.186C169.342 159.338 169.297 159.507 169.292 159.678C169.286 159.85 169.32 160.02 169.389 160.177L169.173 160.052C168.037 159.348 167.128 161.189 168.264 161.928C170.656 163.404 173.409 164.191 176.22 164.201C176.347 164.296 176.496 164.357 176.654 164.377C176.811 164.397 176.971 164.375 177.118 164.314L177.595 164.132C179.99 164.014 182.352 163.523 184.596 162.678C185.193 162.444 185.821 162.302 186.46 162.257C186.062 159.53 185.528 156.904 185.04 154.267Z" fill="#FCBF81"/>
<path d="M139.135 280.799L143.909 282.504C144.049 282.941 144.301 283.333 144.64 283.642C144.979 283.951 145.393 284.166 145.841 284.266C146.009 284.47 146.249 284.604 146.511 284.641C148.451 284.78 150.397 284.465 152.194 283.72C154.467 283.004 163.4 279.594 160.923 285.993C159.297 287.13 157.513 288.118 155.808 289.141C154.876 289.71 153.933 290.278 152.967 290.812C152.456 291.159 151.891 291.42 151.296 291.585C150.012 291.778 146.898 290.812 146.818 291.142C146.739 291.471 146.454 293.926 146.454 293.926C146.454 293.926 138.328 297.029 137.976 291.585C137.919 290.88 139.135 280.799 139.135 280.799Z" fill="#141985"/>
<path d="M132.431 231.973C131.431 215.925 130.885 199.775 127.498 183.999C127.351 179.896 124.691 182.522 124.873 180.897C126.316 167.69 145.547 183.408 145.547 183.408C146.331 184.045 146.422 188.091 146.581 189.012C147.452 194.08 148.21 199.168 148.854 204.275C152.036 230.052 150.866 255.704 149.559 281.56C145.478 285.731 142.796 286.981 136.216 284.288C134.897 267.365 133.647 250.43 132.567 233.496L132.431 231.973Z" fill="#34323D"/>
<path d="M142.705 152.186C142.523 151.345 140.364 150.788 139.727 150.447C138.238 149.64 139.114 148.174 137.647 147.356C135.528 146.123 133.321 145.048 131.044 144.139H130.987C127.339 144.139 121.224 143.935 120.849 148.811C120.281 156.323 120.94 163.79 121.52 171.269C121.759 174.269 122.02 177.247 122.281 180.179C122.372 181.247 122.52 189.919 123.157 190.181C130.396 193.181 139.659 192.124 146.751 189.317C146.366 176.854 145.013 164.44 142.705 152.186Z" fill="#ADE117"/>
<path d="M136.204 159.767C136.421 162.264 137.4 164.634 139.008 166.557C140.616 168.48 142.775 169.863 145.194 170.519C145.194 171.019 145.342 174.065 145.398 174.565C139.613 173.178 135.351 165.916 134.749 159.79C134.669 158.835 136.113 158.847 136.204 159.767Z" fill="#569403"/>
<path d="M132.678 128.957C133.156 129.082 137.224 138.39 135.61 144.039C133.997 149.687 124.427 143.88 121.972 139.572C119.517 135.265 123.586 126.604 132.678 128.957Z" fill="#FCBF81"/>
<path d="M132.543 130.309C132.538 131.174 132.282 132.019 131.806 132.741C131.329 133.463 130.654 134.032 129.861 134.378C127.167 135.366 124.94 136.037 125.087 137.287C125.235 138.537 129.952 137.117 129.963 139.958C129.964 141.878 129.704 143.79 129.19 145.641C128.895 147.039 120.825 142.765 118.177 135.469C115.529 128.172 122.178 126.251 122.496 126.194C122.814 126.138 123.417 124.16 126.678 123.455C129.94 122.751 130.861 124.012 130.861 124.012C131.601 123.565 132.468 123.373 133.328 123.465C134.188 123.558 134.994 123.929 135.623 124.524C138.635 126.91 137.896 131.275 134.486 133.048L132.543 130.309Z" fill="#34323D"/>
<path d="M136.19 146.538C136.19 146.538 152.795 156.051 158.773 156.062C163.092 156.062 171.639 154.664 176.037 153.88C180.152 157.369 180.424 163.472 177.867 168.132C170.616 169.269 149.147 172.405 142.407 169.064C134.247 165.018 125.291 159.608 125.291 159.608C125.291 159.608 117.233 151.664 136.19 146.538Z" fill="#ADE117"/>
<path d="M183.348 155.314C183.348 155.314 185.837 153.268 186.473 153.689C187.109 154.109 188.632 157.576 188.428 159.633C188.223 161.69 187.166 163.429 182.063 163.372" fill="#FCBF81"/>
<path style="mix-blend-mode:multiply" d="M51.3136 228.051C44.4943 232.597 37.4591 236.734 30.5149 241.041C37.0955 244.769 43.3237 248.349 43.8238 248.713L65.5658 236.643L51.3136 228.051Z" fill="url(#paint3_linear)"/>
<path d="M46.3703 213.562C46.3703 213.562 43.8586 233.735 55.2808 237.599C66.703 241.464 72.8062 231.36 72.9881 213.562" fill="#545BF3"/>
<path d="M59.6785 220.743C67.0288 220.743 72.9874 217.527 72.9874 213.56C72.9874 209.593 67.0288 206.377 59.6785 206.377C52.3282 206.377 46.3696 209.593 46.3696 213.56C46.3696 217.527 52.3282 220.743 59.6785 220.743Z" fill="#141985"/>
<path d="M59.6802 213.56C59.6802 213.56 59.6802 185.658 45.428 174.316C45.428 174.316 37.8246 178.862 39.7453 185.806C41.6661 192.75 49.8378 187.59 51.2471 191.239C52.6564 194.887 48.4399 195.955 51.3153 199.672C54.1908 203.388 59.6802 206.377 59.6802 213.56Z" fill="#91BE30"/>
<path d="M62.565 211.197C62.565 211.197 61.4285 178.851 68.5887 169.247C75.7489 159.644 80.4882 172.827 77.2491 178.715C74.01 184.602 68.3727 183.124 70.4299 188.182C72.487 193.24 75.9648 195.888 71.9983 198.059C68.0318 200.229 62.2695 207.094 62.565 211.197Z" fill="#91BE30"/>
</g>
<defs>
<filter id="filter0_d" x="0" y="0" width="360" height="334.652" filterUnits="userSpaceOnUse" color-interpolation-filters="sRGB">
<feFlood flood-opacity="0" result="BackgroundImageFix"/>
<feColorMatrix in="SourceAlpha" type="matrix" values="0 0 0 0 0 0 0 0 0 0 0 0 0 0 0 0 0 0 127 0"/>
<feOffset dy="15"/>
<feGaussianBlur stdDeviation="5"/>
<feColorMatrix type="matrix" values="0 0 0 0 0 0 0 0 0 0 0 0 0 0 0 0 0 0 0.2 0"/>
<feBlend mode="normal" in2="BackgroundImageFix" result="effect1_dropShadow"/>
<feBlend mode="normal" in="SourceGraphic" in2="effect1_dropShadow" result="shape"/>
</filter>
<linearGradient id="paint0_linear" x1="308.899" y1="199.341" x2="235.377" y2="243.973" gradientUnits="userSpaceOnUse">
<stop stop-color="#B59700"/>
<stop offset="1" stop-color="white"/>
</linearGradient>
<linearGradient id="paint1_linear" x1="9912.23" y1="9018.98" x2="9597.46" y2="9780.77" gradientUnits="userSpaceOnUse">
<stop stop-color="#B59700"/>
<stop offset="1" stop-color="white"/>
</linearGradient>
<linearGradient id="paint2_linear" x1="33740.4" y1="18684.4" x2="30431.8" y2="25564.9" gradientUnits="userSpaceOnUse">
<stop stop-color="#D2B000"/>
<stop offset="1" stop-color="white"/>
</linearGradient>
<linearGradient id="paint3_linear" x1="3106.23" y1="4775.2" x2="2951.65" y2="5135.15" gradientUnits="userSpaceOnUse">
<stop stop-color="#B59700"/>
<stop offset="1" stop-color="white"/>
</linearGradient>
</defs>
</svg>
