<svg width="57" height="57" viewBox="0 0 57 57" fill="none" xmlns="http://www.w3.org/2000/svg">
<path d="M41.8333 16.3334L24.3333 35.8334L11.8333 24.8334L8.83331 27.8334L24.3333 41.3334L44.8333 19.3334L41.8333 16.3334ZM28.3333 0C12.6933 0 0 12.6933 0 28.3333C0 43.9734 12.6933 56.6667 28.3333 56.6667C43.9734 56.6667 56.6667 43.9734 56.6667 28.3333C56.6667 12.6933 43.9734 0 28.3333 0ZM28.3333 53.3334C15.81 53.3334 3.33331 40.8567 3.33331 28.3333C3.33331 15.81 15.81 3.33337 28.3333 3.33337C40.8567 3.33337 53.3333 15.81 53.3333 28.3333C53.3333 40.8567 40.8567 53.3334 28.3333 53.3334Z" fill="url(#paint0_linear)"/>
<defs>
<linearGradient id="paint0_linear" x1="28.3333" y1="0" x2="28.3333" y2="56.6667" gradientUnits="userSpaceOnUse">
<stop stop-color="#FAFF00"/>
<stop offset="1" stop-color="#FFF500"/>
</linearGradient>
</defs>
</svg>
