<svg width="33" height="33" viewBox="0 0 33 33" fill="none" xmlns="http://www.w3.org/2000/svg">
<path d="M22.2751 14.8499C23.642 14.8499 24.7501 13.7418 24.7501 12.3749C24.7501 11.008 23.642 9.8999 22.2751 9.8999C20.9081 9.8999 19.8 11.008 19.8 12.3749C19.8 13.7418 20.9081 14.8499 22.2751 14.8499Z" fill="#544700"/>
<path d="M10.725 14.8499C12.0919 14.8499 13.2 13.7418 13.2 12.3749C13.2 11.008 12.0919 9.8999 10.725 9.8999C9.35809 9.8999 8.25 11.008 8.25 12.3749C8.25 13.7418 9.35809 14.8499 10.725 14.8499Z" fill="#544700"/>
<path d="M16.4835 0C7.3755 0 0 7.392 0 16.5C0 25.608 7.3755 33 16.4835 33C25.608 33 33 25.608 33 16.5C33 7.392 25.608 0 16.4835 0ZM16.5 31C9.207 31 2 23.793 2 16.5C2 9.207 9.207 2 16.5 2C23.793 2 31 9.207 31 16.5C31 23.793 23.793 31 16.5 31ZM8.25 19.8C9.537 23.661 12.738 26.4 16.5 26.4C20.262 26.4 23.463 23.661 24.75 19.8H8.25Z" fill="#544700"/>
</svg>
