<svg width="242" height="276" viewBox="0 0 242 276" fill="none" xmlns="http://www.w3.org/2000/svg">
<path d="M210.469 210.145C211.106 210.53 211.634 211.072 212.003 211.718C212.372 212.364 212.57 213.094 212.578 213.838C212.586 214.582 212.404 215.316 212.049 215.97C211.694 216.624 211.178 217.177 210.549 217.575L110.219 273.885C108.203 275.015 105.926 275.599 103.615 275.579C101.303 275.56 99.037 274.938 97.0394 273.775L2.38936 218.875C1.66271 218.454 1.05948 217.85 0.640114 217.122C0.220751 216.395 0 215.57 0 214.73C0 213.891 0.220751 213.066 0.640114 212.338C1.05948 211.611 1.66271 211.006 2.38936 210.585L103.079 152.585C104.122 151.987 105.303 151.672 106.504 151.672C107.706 151.672 108.887 151.987 109.929 152.585L210.469 210.145Z" fill="#E8C300"/>
<path style="mix-blend-mode:multiply" d="M93.9393 210.265C79.2093 218.855 68.6793 224.625 46.0193 237.565C63.1693 247.985 76.4593 257.565 78.3893 258.705L129.289 228.775C125.329 226.775 112.249 219.335 93.9393 210.265Z" fill="url(#paint0_linear)"/>
<path d="M234.299 192.495V80.7751C234.311 79.9679 234.108 79.1719 233.711 78.4689C233.314 77.766 232.737 77.1814 232.039 76.7751C222.759 71.3851 117.619 11.8351 97.2093 0.275146C96.7938 0.0399196 96.3111 -0.0481688 95.8393 0.0251465C95.8135 0.0151058 95.785 0.0151058 95.7593 0.0251465C94.13 0.715734 92.5438 1.50383 91.0093 2.38515C91.8821 3.00121 92.945 3.28818 94.0093 3.19515V12.1251L94.2693 117.945C94.2693 120.065 182.269 168.565 184.099 169.625L228.459 194.875C227.019 195.975 226.229 197.725 227.109 197.875C228.289 198.095 230.849 196.635 232.249 195.765C232.597 195.616 232.918 195.409 233.199 195.155C233.569 194.821 233.859 194.409 234.05 193.949C234.24 193.489 234.325 192.992 234.299 192.495Z" fill="#021E6A"/>
<path d="M234.299 192.495V80.7751C234.311 79.9679 234.108 79.1719 233.711 78.4689C233.314 77.766 232.737 77.1814 232.039 76.7751C222.759 71.3851 117.619 11.8351 97.2093 0.275146C96.7938 0.0399196 96.3111 -0.0481688 95.8393 0.0251465C95.8135 0.0151058 95.785 0.0151058 95.7593 0.0251465C94.13 0.715734 92.5438 1.50383 91.0093 2.38515C91.8821 3.00121 92.945 3.28818 94.0093 3.19515V12.1251L94.2693 117.945C94.2693 120.065 182.269 168.565 184.099 169.625L228.459 194.875C227.019 195.975 226.229 197.725 227.109 197.875C228.289 198.095 230.849 196.635 232.249 195.765C232.597 195.616 232.918 195.409 233.199 195.155C233.569 194.821 233.859 194.409 234.05 193.949C234.24 193.489 234.325 192.992 234.299 192.495Z" fill="#3D53A3"/>
<path d="M90.1694 3.97529C90.195 3.6088 90.3129 3.25474 90.5119 2.94597C90.711 2.63721 90.9849 2.38376 91.3081 2.20917C91.6314 2.03458 91.9935 1.94451 92.3609 1.94733C92.7282 1.95015 93.0889 2.04576 93.4094 2.22529C113.829 13.7753 218.939 73.3353 228.249 78.7253C228.947 79.1315 229.524 79.7161 229.921 80.4191C230.319 81.122 230.522 81.918 230.509 82.7253V194.385C230.679 196.665 228.099 198.775 225.999 197.575L180.259 171.575C178.419 170.525 90.4294 122.015 90.4294 119.895L90.1694 14.0753V3.97529Z" fill="#021E6A"/>
<path d="M103.979 74.5752V116.275L156.089 146.355V104.615L103.979 74.5752Z" fill="white"/>
<path d="M158.829 106.535V148.235L210.929 178.315V136.585L158.829 106.535Z" fill="white"/>
<path d="M103.979 28.7952V70.4952L156.089 100.575V58.8352L103.979 28.7952Z" fill="white"/>
<path d="M158.829 59.915V101.615L210.929 131.695V89.965L158.829 59.915Z" fill="white"/>
<path d="M159.802 53.5797C161.026 53.26 161.58 51.3245 161.04 49.2565C160.5 47.1886 159.07 45.7713 157.846 46.091C156.622 46.4106 156.068 48.3461 156.609 50.4141C157.149 52.482 158.579 53.8993 159.802 53.5797Z" fill="#34323D"/>
<path d="M133.017 70.603C136.159 69.4845 137.375 64.8365 135.733 60.2213C134.09 55.6061 130.211 52.7714 127.069 53.8899C123.926 55.0083 122.71 59.6563 124.352 64.2715C125.995 68.8867 129.874 71.7214 133.017 70.603Z" fill="#8A9FD7"/>
<path d="M115.419 77.0952C115.419 77.0952 118.829 65.4752 127.519 68.0052C136.209 70.5352 141.689 77.7452 141.689 92.4552" fill="#8A9FD7"/>
<path d="M187.15 101.654C190.293 100.535 191.509 95.8873 189.866 91.2721C188.224 86.6569 184.345 83.8222 181.202 84.9407C178.059 86.0591 176.843 90.7072 178.486 95.3224C180.128 99.9376 184.007 102.772 187.15 101.654Z" fill="#8A9FD7"/>
<path d="M169.569 108.135C169.569 108.135 172.979 96.5152 181.669 99.0452C190.359 101.575 195.839 108.775 195.839 123.505" fill="#8A9FD7"/>
<path d="M131.035 114.997C134.177 113.879 135.393 109.231 133.751 104.616C132.109 100 128.229 97.1657 125.087 98.2842C121.944 99.4026 120.728 104.051 122.37 108.666C124.013 113.281 127.892 116.116 131.035 114.997Z" fill="#8A9FD7"/>
<path d="M113.449 121.485C113.449 121.485 116.859 109.865 125.549 112.395C134.239 114.925 139.719 122.135 139.719 136.845" fill="#8A9FD7"/>
<path d="M183.529 145.821C186.672 144.702 187.888 140.054 186.246 135.439C184.603 130.824 180.724 127.989 177.581 129.108C174.439 130.226 173.222 134.874 174.865 139.489C176.507 144.105 180.387 146.939 183.529 145.821Z" fill="#8A9FD7"/>
<path d="M165.939 152.315C165.939 152.315 169.349 140.695 178.039 143.225C186.729 145.755 192.209 152.965 192.209 167.675" fill="#8A9FD7"/>
<path d="M106.079 176.425C101.769 173.425 96.6993 171.765 91.2193 172.975C85.3793 174.255 80.3293 177.975 74.3793 178.825C73.4393 178.965 69.6893 178.725 69.1093 179.265C52.5593 194.925 98.8193 193.265 98.8193 193.265C103.309 189.585 107.539 185.965 111.989 182.265C110.649 179.225 108.389 178.045 106.079 176.425Z" fill="#F8997C"/>
<path d="M84.2994 199.135L82.6594 246.385C82.5994 248.175 85.3794 248.175 85.4394 246.385L87.0794 199.135C87.1494 197.335 84.3694 197.345 84.2994 199.135Z" fill="#F8997C"/>
<path d="M118.989 224.415C110.563 216.168 102.513 207.565 94.8393 198.605C93.6693 197.245 91.7093 199.215 92.8393 200.605C100.506 209.558 108.556 218.162 116.989 226.415C118.299 227.635 120.279 225.665 118.989 224.415Z" fill="#F8997C"/>
<path d="M74.6493 194.775C68.1093 207.122 61.9493 219.655 56.1693 232.375C55.4293 233.995 57.8293 235.375 58.5693 233.785C64.3493 221.065 70.5093 208.532 77.0493 196.185C77.9393 194.585 75.4893 193.175 74.6493 194.775Z" fill="#F8997C"/>
<path d="M116.179 165.255C116.179 165.255 122.179 166.485 123.549 167.835C124.919 169.185 127.109 174.835 126.499 176.545C125.889 178.255 124.169 175.545 123.429 174.465C122.555 173.317 121.613 172.222 120.609 171.185C118.632 171.49 116.609 171.222 114.779 170.415" fill="#FCBF81"/>
<path d="M118.189 216.425C119.059 215.535 119.619 214.555 119.319 213.585C118.789 211.845 116.429 211.145 114.819 211.235C113.209 211.325 111.529 212.145 109.899 212.635C108.19 213.248 106.366 213.474 104.559 213.295C104.267 213.256 104 213.11 103.809 212.885C103.308 212.765 102.846 212.519 102.467 212.168C102.089 211.818 101.807 211.376 101.649 210.885L96.2995 208.965C96.2995 208.965 94.9395 220.285 94.9395 221.085C95.3395 227.185 104.449 223.705 104.449 223.705C104.449 223.705 104.769 220.945 104.859 220.575C104.949 220.205 108.439 221.285 109.859 221.065C110.526 220.879 111.158 220.586 111.729 220.195C112.809 219.605 113.859 218.965 114.909 218.325C115.959 217.685 117.099 217.075 118.189 216.425Z" fill="#E55600"/>
<path d="M98.2295 174.685C96.2295 174.885 94.2295 175.145 92.2295 175.425C93.0628 188.265 93.9862 201.095 94.9995 213.915C100.199 216.045 102.31 215.055 105.54 211.755C106.15 199.515 107.229 186.695 107.189 174.335C104.189 174.465 101.209 174.595 98.2295 174.685Z" fill="#34323D"/>
<path d="M76.5894 171.165C76.5894 171.165 75.7294 185.215 82.7894 188.355C89.8494 191.495 104.339 189.925 111.459 185.745C115.144 183.501 119.011 181.571 123.019 179.975C123.019 179.975 124.849 173.825 120.409 171.165C115.969 168.505 106.149 165.225 97.4094 171.165" fill="#34323D"/>
<path d="M107.57 132.575C107.791 132.046 108.052 131.535 108.35 131.045C108.358 131.076 108.375 131.104 108.4 131.125C108.407 131.165 108.427 131.202 108.457 131.23C108.486 131.258 108.523 131.277 108.564 131.284C108.604 131.29 108.645 131.284 108.682 131.267C108.719 131.249 108.749 131.22 108.77 131.185L109.34 130.325C109.32 130.438 109.32 130.553 109.34 130.665C109.385 130.875 109.508 131.061 109.684 131.185C109.86 131.309 110.076 131.362 110.29 131.335C110.415 131.326 110.536 131.29 110.646 131.228C110.755 131.167 110.849 131.082 110.922 130.979C110.995 130.877 111.044 130.76 111.066 130.637C111.088 130.513 111.082 130.386 111.05 130.265L111.31 129.965C111.296 130.051 111.296 130.139 111.31 130.225C111.349 130.345 111.418 130.454 111.511 130.54C111.603 130.627 111.716 130.688 111.839 130.719C111.962 130.75 112.09 130.749 112.213 130.717C112.335 130.685 112.448 130.622 112.54 130.535C112.64 130.455 112.73 130.355 112.82 130.265C112.898 130.299 112.984 130.317 113.07 130.317C113.156 130.317 113.241 130.299 113.32 130.265C114.053 130.015 114.771 129.721 115.47 129.385C115.421 129.364 115.378 129.332 115.344 129.291C115.31 129.249 115.287 129.201 115.276 129.149C115.265 129.097 115.267 129.043 115.282 128.992C115.296 128.941 115.323 128.894 115.36 128.855C116.184 128.188 117.056 127.583 117.97 127.045C118.002 127.018 118.039 126.997 118.08 126.985L118.13 126.895C118.344 126.202 118.294 125.454 117.99 124.795C118.21 124.527 118.367 124.212 118.448 123.874C118.53 123.536 118.534 123.184 118.46 122.845C118.386 122.84 118.316 122.812 118.26 122.765C118.129 122.654 118.018 122.522 117.93 122.375C117.768 122.175 117.643 121.948 117.56 121.705C117.539 121.644 117.539 121.578 117.558 121.517C117.578 121.456 117.617 121.402 117.67 121.365C117.33 120.915 116.93 120.485 116.58 120.085C117.436 118.625 117.843 116.945 117.75 115.255C117.742 115.097 117.683 114.946 117.583 114.823C117.483 114.701 117.347 114.614 117.194 114.575C117.04 114.536 116.879 114.547 116.732 114.606C116.586 114.665 116.462 114.77 116.38 114.905C116.043 115.436 115.739 115.987 115.47 116.555C115.381 116.613 115.309 116.692 115.26 116.785C113.814 119.753 112.208 122.641 110.45 125.435C110.15 125.905 106.45 130.945 106.91 131.065C106.88 131.295 103.88 138.205 107.57 132.575ZM109.73 130.445C109.73 130.445 109.73 130.445 109.73 130.395C109.748 130.416 109.771 130.433 109.797 130.445C109.823 130.457 109.851 130.463 109.88 130.463C109.908 130.463 109.936 130.457 109.962 130.445C109.988 130.433 110.011 130.416 110.03 130.395C110.119 130.46 110.222 130.504 110.331 130.525C110.44 130.545 110.552 130.542 110.66 130.515C110.652 130.648 110.591 130.772 110.492 130.86C110.392 130.948 110.262 130.993 110.13 130.985C109.997 130.977 109.873 130.917 109.785 130.817C109.697 130.718 109.652 130.588 109.66 130.455L109.73 130.445Z" fill="#FCBF81"/>
<path d="M107.939 130.965C108.741 130.352 109.42 129.591 109.939 128.725C110.037 128.544 110.171 128.383 110.332 128.254C110.493 128.125 110.678 128.03 110.877 127.974C111.076 127.918 111.284 127.903 111.489 127.929C111.693 127.955 111.891 128.021 112.069 128.125C112.127 127.721 112.157 127.313 112.159 126.905C112.159 124.825 115.429 124.795 115.389 126.905C115.463 128.538 115.026 130.153 114.139 131.525C113.161 132.763 111.969 133.817 110.619 134.635C110.381 134.769 110.114 134.841 109.841 134.847C109.569 134.853 109.299 134.791 109.055 134.667C108.812 134.544 108.603 134.362 108.447 134.138C108.291 133.915 108.192 133.656 108.159 133.385L108.019 133.275C107.862 133.129 107.735 132.953 107.646 132.758C107.556 132.563 107.506 132.352 107.499 132.137C107.492 131.922 107.527 131.708 107.602 131.507C107.678 131.306 107.792 131.122 107.939 130.965Z" fill="#FCBF81"/>
<path d="M90.0593 138.725C90.0593 138.725 99.4893 139.175 101.949 136.915C104.409 134.655 107.949 127.545 107.949 127.545C107.949 127.545 114.449 131.725 114.769 134.125C115.089 136.525 107.979 148.125 104.819 148.935" fill="#BA3E00"/>
<path d="M134.499 225.225C135.369 224.335 135.929 223.355 135.629 222.385C135.099 220.645 132.739 219.945 131.129 220.035C129.519 220.125 127.839 220.945 126.209 221.435C124.5 222.049 122.676 222.274 120.869 222.095C120.577 222.056 120.31 221.91 120.119 221.685C119.618 221.566 119.156 221.319 118.777 220.968C118.399 220.618 118.117 220.176 117.959 219.685L112.599 217.775C112.599 217.775 111.229 229.085 111.279 229.875C111.679 235.975 120.789 232.495 120.789 232.495C120.789 232.495 121.109 229.735 121.199 229.365C121.289 228.995 124.779 230.075 126.199 229.855C126.866 229.67 127.498 229.376 128.069 228.985C129.149 228.395 130.199 227.755 131.249 227.115C132.299 226.475 133.419 225.875 134.499 225.225Z" fill="#E55600"/>
<path d="M113.939 171.505C112.099 170.635 110.169 170.725 107.939 170.735C108.249 175.255 108.079 176.885 108.359 181.405L108.439 182.605C109.299 195.985 110.279 209.355 111.319 222.715C116.519 224.845 118.629 223.855 121.859 220.555C122.579 206.315 123.919 191.275 123.399 177.105C120.369 174.135 117.699 173.295 113.939 171.505Z" fill="#34323D"/>
<path d="M76.4592 168.255C76.4592 168.605 76.5292 169.765 76.5792 171.165C79.4992 175.015 83.0792 177.275 88.6892 177.105C93.2292 176.975 97.0192 174.985 100.579 172.535C100.139 164.305 98.8092 150.255 96.7292 140.455C96.5492 139.625 94.3992 139.075 93.7292 138.725C92.2492 137.915 93.1192 136.525 91.6692 135.655C89.5669 134.433 87.3777 133.367 85.1192 132.465H85.0592C81.4392 132.415 75.2092 135.195 74.8392 140.035C74.2692 147.485 75.0892 151.965 75.6692 159.395C75.9392 162.395 76.2092 165.345 76.4592 168.255Z" fill="#E55600"/>
<path d="M89.0493 118.375C89.5293 118.495 93.5393 127.735 91.9693 133.375C90.3993 139.015 80.8693 133.215 78.4693 128.945C76.0693 124.675 80.0393 116.035 89.0493 118.375Z" fill="#FCBF81"/>
<path d="M88.9394 119.665C88.9394 119.665 88.9394 122.715 86.2794 123.665C83.6194 124.615 81.3994 125.315 81.5394 126.545C81.6794 127.775 86.3594 126.375 86.3794 129.195C86.3822 131.098 86.1265 132.992 85.6194 134.825C85.3294 136.205 77.3194 131.965 74.6794 124.735C72.0394 117.505 78.6794 115.585 78.9694 115.535C79.2594 115.485 79.8894 113.535 83.1294 112.815C86.3694 112.095 87.2794 113.365 87.2794 113.365C88.0151 112.921 88.876 112.731 89.7303 112.823C90.5846 112.915 91.3851 113.285 92.0094 113.875C95.0094 116.245 94.2394 120.575 90.8594 122.335L88.9394 119.665Z" fill="#34323D"/>
<path d="M90.5793 148.305C90.5793 148.305 100.489 166.405 105.969 167.965C109.901 168.992 113.917 169.662 117.969 169.965C117.969 169.965 118.649 164.965 117.969 162.785C117.969 162.785 109.199 158.835 108.339 156.465C107.479 154.095 100.089 137.465 91.6993 135.705" fill="#E55600"/>
<path d="M99.6992 162.375C99.0892 161.595 92.2192 153.815 92.2192 153.815L100.479 170.775L99.6992 162.375Z" fill="#34323D"/>
<path d="M111.359 181.935C108.785 185.53 105.137 188.216 100.939 189.605C95.0494 191.395 86.4794 190.555 83.3894 184.395C77.7594 173.185 83.0494 159.165 77.0994 148.265C76.4133 146.887 75.444 145.67 74.255 144.693C73.0659 143.716 71.6839 143.001 70.1994 142.595C66.3394 141.755 63.6994 144.645 62.2994 148.055C59.7894 154.165 59.8794 161.785 60.0094 168.285C60.0147 173.546 60.3957 178.799 61.1494 184.005C61.1494 184.005 64.7494 205.845 92.8494 200.005C97.713 199.122 102.384 197.393 106.649 194.895C108.841 193.621 110.755 191.921 112.279 189.895C113.939 187.425 112.839 184.455 111.359 181.935Z" fill="#021E6A"/>
<path d="M18.0094 189.845C14.112 194.841 12.209 201.106 12.6694 207.425C13.3794 217.685 19.1594 220.665 19.1594 220.665L26.0394 221.045C26.0394 221.045 34.2194 218.375 33.1494 205.045C32.1494 192.515 28.0694 189.575 28.0694 189.575" fill="#021E6A"/>
<path d="M23.0793 191.635C25.8738 191.635 28.1393 190.834 28.1393 189.845C28.1393 188.857 25.8738 188.055 23.0793 188.055C20.2847 188.055 18.0193 188.857 18.0193 189.845C18.0193 190.834 20.2847 191.635 23.0793 191.635Z" fill="#003B94"/>
<path d="M23.0793 221.365C25.8738 221.365 28.1393 220.564 28.1393 219.575C28.1393 218.587 25.8738 217.785 23.0793 217.785C20.2847 217.785 18.0193 218.587 18.0193 219.575C18.0193 220.564 20.2847 221.365 23.0793 221.365Z" fill="#021E6A"/>
<path d="M20.9995 190.385L14.8695 155.225C14.7395 154.455 13.5695 154.785 13.6995 155.545L19.8295 190.705C19.9395 191.475 21.1295 191.155 20.9995 190.385Z" fill="#C3EA75"/>
<path d="M22.1094 190.505C22.2943 190.469 22.4845 190.469 22.6694 190.505C22.9123 190.567 23.1315 190.699 23.2994 190.885C23.786 181.065 23.8727 171.238 23.5594 161.405C23.5594 160.625 22.3294 160.625 22.3494 161.405C22.6627 171.112 22.5827 180.812 22.1094 190.505Z" fill="#C3EA75"/>
<path d="M35.8893 156.385C31.3218 167.418 27.3691 178.695 24.0493 190.165C24.0253 190.314 24.0572 190.466 24.1386 190.592C24.2201 190.719 24.3454 190.811 24.4906 190.85C24.6357 190.89 24.7904 190.875 24.9249 190.807C25.0594 190.74 25.1642 190.625 25.2193 190.485C28.539 179.015 32.4918 167.738 37.0593 156.705C37.3493 155.995 36.1793 155.675 35.8893 156.385Z" fill="#C3EA75"/>
<path d="M16.1794 169.775C16.1794 169.775 15.5194 169.695 12.6294 166.655C9.73943 163.615 13.3894 161.325 11.7194 157.905C10.0494 154.485 12.4094 149.985 12.9394 146.565C13.2646 148.963 14.1334 151.255 15.4794 153.265C17.6594 156.385 18.8794 159.205 18.6494 163.165C18.488 165.664 18.0589 168.138 17.3694 170.545" fill="#C3EA75"/>
<path d="M22.3794 175.155C22.3794 175.155 21.7594 174.915 19.6894 171.255C17.6194 167.595 21.6894 166.255 20.9294 162.545C20.1694 158.835 23.5194 155.035 24.8694 151.835C24.603 154.242 24.8903 156.677 25.7094 158.955C27.0694 162.515 27.5594 165.535 26.3794 169.325C25.6269 171.709 24.6212 174.006 23.3794 176.175" fill="#C3EA75"/>
<path d="M31.0193 168.775C31.0193 168.775 30.4593 168.415 29.1893 164.415C27.9193 160.415 32.1893 159.955 32.1893 156.135C32.1893 152.315 36.2593 149.315 38.1893 146.465C37.4346 148.765 37.2157 151.207 37.5493 153.605C38.1493 157.365 38.0193 160.425 36.0793 163.895C34.8411 166.073 33.3727 168.111 31.6993 169.975" fill="#C3EA75"/>
<path d="M241.709 59.0251V89.7751C241.706 90.2422 241.581 90.7004 241.347 91.1046C241.112 91.5087 240.777 91.8449 240.373 92.08C239.97 92.3152 239.512 92.4411 239.045 92.4455C238.577 92.4499 238.117 92.3326 237.709 92.1051L206.089 73.8751C205.679 73.6396 205.339 73.3002 205.102 72.8912C204.865 72.4821 204.74 72.0178 204.739 71.5451V40.7751C204.743 40.3079 204.868 39.8497 205.102 39.4456C205.336 39.0414 205.672 38.7052 206.075 38.4701C206.479 38.235 206.937 38.109 207.404 38.1046C207.871 38.1002 208.331 38.2176 208.739 38.4451L240.319 56.6751C240.74 56.9071 241.09 57.2474 241.335 57.6606C241.579 58.0738 241.708 58.545 241.709 59.0251Z" fill="#A6B4F5"/>
<path d="M204.739 65.9253V80.0553L214.309 74.5753L204.739 65.9253Z" fill="#A6B4F5"/>
<path d="M96.6094 61.3952V92.1352C96.606 92.6023 96.4811 93.0605 96.2468 93.4647C96.0126 93.8689 95.6771 94.205 95.2734 94.4402C94.8698 94.6753 94.4119 94.8013 93.9447 94.8056C93.4776 94.81 93.0174 94.6927 92.6094 94.4652L60.9994 76.2452C60.5895 76.0097 60.2489 75.6703 60.0119 75.2613C59.7749 74.8522 59.6499 74.388 59.6494 73.9152V43.1652C59.6528 42.6981 59.7777 42.2399 60.012 41.8357C60.2462 41.4315 60.5817 41.0954 60.9854 40.8602C61.389 40.6251 61.8469 40.4991 62.3141 40.4947C62.7812 40.4904 63.2414 40.6077 63.6494 40.8352L95.2294 59.0652C95.6449 59.2969 95.9916 59.6346 96.234 60.0439C96.4764 60.4532 96.606 60.9195 96.6094 61.3952Z" fill="#A6B4F5"/>
<path d="M89.0994 92.465L102.639 99.925L95.8694 84.165" fill="#A6B4F5"/>
<path d="M211.059 55.4151L234.469 68.6751C234.808 68.8162 235.186 68.8287 235.533 68.71C235.879 68.5914 236.171 68.3499 236.352 68.0312C236.532 67.7125 236.59 67.3385 236.514 66.98C236.439 66.6215 236.234 66.3031 235.939 66.0851L212.579 52.8251C212.237 52.6418 211.837 52.5984 211.463 52.7041C211.089 52.8098 210.771 53.0564 210.575 53.392C210.38 53.7275 210.322 54.1259 210.414 54.5032C210.506 54.8806 210.741 55.2075 211.069 55.4151H211.059Z" fill="#F2F2F2"/>
<path d="M210.469 63.2852L233.879 76.5352C234.222 76.7186 234.622 76.762 234.996 76.6562C235.369 76.5505 235.688 76.3039 235.883 75.9684C236.079 75.6328 236.137 75.2344 236.045 74.8571C235.952 74.4798 235.718 74.1529 235.389 73.9452L211.939 60.6952C211.597 60.5119 211.197 60.4685 210.823 60.5742C210.449 60.6799 210.131 60.9265 209.935 61.2621C209.74 61.5976 209.682 61.996 209.774 62.3733C209.866 62.7507 210.101 63.0776 210.429 63.2852H210.469Z" fill="#F2F2F2"/>
<path d="M64.8592 56.4952L90.5392 71.0252C90.8816 71.2085 91.2818 71.2519 91.6556 71.1462C92.0293 71.0405 92.3475 70.7939 92.5431 70.4583C92.7388 70.1228 92.7966 69.7244 92.7045 69.3471C92.6124 68.9697 92.3775 68.6428 92.0492 68.4352L66.3692 53.9052C66.0268 53.7218 65.6266 53.6785 65.2528 53.7842C64.8791 53.8899 64.5609 54.1365 64.3653 54.472C64.1696 54.8076 64.1118 55.206 64.2039 55.5833C64.2961 55.9606 64.531 56.2875 64.8592 56.4952Z" fill="#F2F2F2"/>
<path d="M64.2093 65.1151L89.8893 79.6551C90.2317 79.8384 90.6319 79.8818 91.0057 79.7761C91.3794 79.6703 91.6976 79.4238 91.8932 79.0882C92.0889 78.7526 92.1467 78.3543 92.0546 77.9769C91.9625 77.5996 91.7276 77.2727 91.3993 77.0651L65.7193 62.5251C65.3769 62.3417 64.9767 62.2983 64.603 62.4041C64.2292 62.5098 63.911 62.7564 63.7154 63.0919C63.5198 63.4275 63.4619 63.8258 63.554 64.2032C63.6462 64.5805 63.8811 64.9074 64.2093 65.1151Z" fill="#F2F2F2"/>
<defs>
<linearGradient id="paint0_linear" x1="103.429" y1="223.765" x2="65.7093" y2="246.295" gradientUnits="userSpaceOnUse">
<stop stop-color="#808080"/>
<stop offset="1" stop-color="white"/>
</linearGradient>
</defs>
</svg>
